<svg width="500" height="462" viewBox="0 0 500 462" fill="none" xmlns="http://www.w3.org/2000/svg">
<g clip-path="url(#clip0_2141_1959)">
<path d="M288.771 270.563C290.773 272.2 292.572 274.961 294.272 276.905C306.673 291.84 325.574 306.466 340.676 318.334C334.674 318.334 329.475 318.128 323.775 316.184C330.276 320.992 337.277 324.878 345.276 326.209C339.876 331.527 333.676 333.471 326.174 331.733C330.474 337.154 340.176 349.327 345.276 353.111C358.777 363.238 370.477 342.064 377.879 357.101C384.88 352.396 392.478 366.614 384.779 377.765C384.68 372.855 383.678 369.785 378.98 367.534C377.079 368.148 375.379 369.172 373.379 369.579C371.979 369.172 352.976 360.272 354.877 368.659C355.977 373.367 367.877 376.741 371.679 379.298C377.079 382.88 372.779 384.107 374.278 391.369C375.879 399.042 366.078 403.848 360.378 405.178C361.278 403.951 362.178 402.52 362.978 401.189C368.777 390.651 357.677 390.755 355.677 389.731C353.878 386.561 356.076 373.468 343.375 376.127C332.174 378.378 343.675 388.811 331.874 390.038C320.574 391.268 326.174 402.416 332.476 406.712C313.075 410.6 311.273 379.81 321.173 379.298C323.374 379.197 325.274 380.525 327.274 378.89C328.276 378.072 335.475 367.739 335.577 366.409C336.075 360.579 322.975 349.121 319.374 344.417L319.173 344.11C317.674 350.247 317.575 354.543 313.473 359.557C313.174 353.215 311.273 349.02 307.573 344.11C307.072 350.351 305.474 355.77 300.173 359.557C298.272 344.211 295.873 344.827 290.672 331.938C288.372 326.415 287.972 319.048 284.372 314.24C280.27 308.615 273.269 303.705 268.571 297.875C277.47 288.463 282.072 281.916 288.771 270.563Z" fill="#F28F90"/>
<path d="M211.365 270.563C213.065 271.483 216.366 278.03 217.566 279.974C221.664 286.623 226.465 292.349 231.867 297.976C227.367 302.681 220.165 308.514 216.465 313.117C212.165 318.23 211.965 327.231 209.464 333.471C205.764 342.984 200.563 348.305 201.465 359.76C195.963 355.567 193.564 350.657 193.864 343.395C189.963 348.201 187.562 352.599 187.463 359.045L186.962 359.25C182.263 357.512 181.661 348.407 181.463 344.211C176.063 349.94 169.662 356.693 165.962 363.75C165.861 369.886 169.962 375.514 173.863 379.81C187.963 377.458 187.463 394.54 180.762 402.52C177.062 406.917 172.861 407.736 167.56 408.144C171.662 404.565 174.663 400.781 175.062 394.948C171.962 389.731 170.061 391.982 165.461 390.449C162.76 389.529 163.663 382.675 162.46 379.912C159.261 372.855 147.46 378.072 146.159 384.107C145.76 385.845 138.959 388.097 135.959 394.948C135.859 399.042 137.059 401.906 139.26 405.178C140.36 406.099 141.46 407.123 142.56 408.043C128.259 401.597 126.958 400.575 124.259 383.901C130.658 378.072 140.759 376.946 142.959 373.673C144.56 371.319 145.46 368.457 142.56 367.025C134.66 363.238 135.359 367.534 130.658 368.966C128.358 369.684 121.558 357.92 114.557 379.605C112.158 372.548 111.756 365.182 115.858 358.533C120.658 355.463 120.358 356.794 125.758 352.396C132.858 346.462 142.26 363.035 153.66 355.463C160.661 350.86 167.662 337.869 174.762 331.938L175.161 331.631C167.56 333.064 161.962 333.064 155.96 327.231C163.36 324.878 169.863 320.379 176.261 316.082C168.661 318.742 165.662 317.104 158.661 318.23C178.561 300.739 193.363 295.317 211.365 270.563Z" fill="#F28F90"/>
<mask id="mask0_2141_1959" style="mask-type:luminance" maskUnits="userSpaceOnUse" x="191" y="298" width="119" height="186">
<path d="M191.176 298.782H309.324V483.356H191.176V298.782Z" fill="white"/>
</mask>
<g mask="url(#mask0_2141_1959)">
<path d="M266.57 299.001C271.07 301.556 278.371 392.801 309.173 405.077C302.073 422.159 286.47 416.532 277.37 405.077C282.269 419.295 286.371 427.376 280.17 441.697C274.668 439.14 269.17 436.377 264.969 431.774C266.27 451.926 259.269 466.143 250.367 483.228C249.468 481.691 248.568 480.158 247.768 478.521C243.468 470.133 240.266 461.132 237.966 451.926C236.467 446.096 235.166 440.572 235.466 431.774C230.666 437.094 227.265 438.423 221.065 441.697L220.466 440.572C213.965 427.581 219.266 417.863 223.365 405.077C214.466 417.145 198.164 421.034 191.664 405.077C219.566 392.084 225.767 327.743 234.066 300.022C239.268 304.524 244.367 308.82 250.469 312.194C256.367 309.023 261.968 304.012 266.57 299.001Z" fill="#F28F90"/>
</g>
<mask id="mask1_2141_1959" style="mask-type:luminance" maskUnits="userSpaceOnUse" x="-1" y="85" width="502" height="227">
<path d="M-0.22998 85.082H500.229V311.754H-0.22998V85.082Z" fill="white"/>
</mask>
<g mask="url(#mask1_2141_1959)">
<path d="M131.158 85.7221C151.561 81.5273 179.061 110.885 150.958 132.264C149.459 162.953 176.662 175.533 200.262 185.15C202.564 178.909 206.364 172.26 211.364 167.964H217.664L217.766 168.783C219.163 180.342 231.866 180.342 238.166 171.954C246.867 183.512 254.969 184.227 262.968 171.954C270.068 179.931 282.87 180.749 285.269 167.964H290.969C292.57 172.26 298.771 179.728 301.67 185.15C325.773 176.864 349.174 163.26 349.376 133.389C335.772 121.318 332.774 100.553 349.874 89.9149C365.275 80.3004 382.377 87.9704 397.078 94.6219L425.379 107.816C449.382 119.068 474.385 129.194 500.087 135.64C480.581 155.994 444.582 145.972 422.579 136.254C415.38 133.082 408.379 129.298 400.979 126.639C405.078 129.399 409.479 131.651 413.779 134.104C438.581 148.22 471.783 169.804 498.485 174.205C478.384 194.047 447.482 179.216 427.079 168.372L405.779 157.12C401.078 154.563 396.178 150.882 391.178 149.143L391.277 149.551C393.777 151.597 396.676 153.336 399.279 155.178L445.979 187.297C463.18 198.957 471.285 203.254 489.985 210.927C459.181 228.214 442.781 213.892 416.279 195.172L398.277 182.592C396.377 181.262 388.878 175.328 387.178 175.125C387.478 175.839 451.281 233.329 456.081 237.215C461.285 241.41 466.983 244.376 472.681 247.752C447.78 271.584 405.779 225.757 389.678 210.006C384.576 204.992 379.475 199.061 373.775 194.663L373.377 194.356C376.075 199.674 382.875 206.424 386.878 211.233L417.478 246.728C427.379 257.98 435.381 269.232 448.781 276.494C420.981 292.35 396.377 262.378 381.475 242.125L369.176 225.451C365.974 221.053 362.874 215.837 359.075 212.052L358.775 212.153L358.976 212.665L359.075 212.564L359.375 212.972L358.976 213.177C364.775 216.348 394.377 281.815 411.98 297.875C387.676 305.239 372.576 279.358 362.175 261.458C360.376 258.287 341.775 223.712 340.773 222.997L340.573 223.203C342.374 230.259 347.073 239.364 349.874 246.32L364.577 282.94C368.577 292.555 372.376 302.375 377.877 311.274C355.174 309.842 346.074 293.886 337.772 273.835C331.773 259.311 326.973 244.274 320.871 229.851C322.973 242.536 326.771 255.219 330.072 267.597C332.573 276.393 334.972 285.293 337.074 294.192C313.972 289.384 311.471 253.582 304.872 233.943C304.072 241.205 309.171 271.381 313.27 280.281C298.672 276.187 293.47 268.517 290.87 253.275C279.77 272.403 269.867 293.272 250.366 305.546C230.965 295.214 220.164 270.152 209.664 251.843C205.062 264.119 205.062 275.371 190.661 280.281C192.964 266.472 194.562 248.059 195.563 233.943C185.064 260.332 194.262 285.498 162.861 294.192C168.36 277.211 174.761 251.638 177.061 233.943C164.861 261.255 160.261 306.263 124.057 309.434C131.757 295.83 154.961 239.874 158.46 223.099C152.358 236.295 145.258 249.286 137.957 261.868C127.158 280.588 115.458 301.966 90.7552 297.057C98.056 286.52 103.555 275.779 110.055 264.935C120.957 247.035 132.158 229.339 142.359 210.927C131.757 224.019 122.058 237.932 111.456 251.126C96.5542 269.643 79.6528 287.645 54.0533 277.62C68.6525 269.131 89.0556 240.18 99.8552 226.576C107.357 217.167 115.356 207.755 122.157 197.834L122.058 197.525C120.157 199.266 118.558 201.208 116.657 202.947L98.7552 220.338C81.1547 237.522 53.8526 265.858 27.8512 247.547C47.1513 238.34 62.0528 222.178 77.755 207.857C88.7553 197.834 105.357 183.718 114.256 171.749C108.955 176.453 103.156 180.547 97.5556 184.945C75.2542 202.438 40.5521 233.839 11.7506 212.052C32.5497 203.051 45.5504 193.025 64.4545 180.648C78.1539 171.543 97.1567 159.473 109.557 148.631C80.954 162.849 31.0507 202.538 1.8474 174.407C25.3509 168.679 77.6529 142.902 96.6562 128.685C71.6533 139.425 23.4501 161.214 0.0483398 135.741C22.4487 131.242 50.3509 119.068 71.1528 109.146C88.9535 100.759 111.857 88.4827 131.158 85.7221ZM128.558 119.374C122.258 130.319 123.158 144.436 126.156 156.301C132.659 182.08 153.561 201.515 177.661 210.211C182.962 212.153 188.763 213.484 193.863 216.041C194.862 216.041 195.962 216.143 196.964 216.041C196.664 213.892 196.262 211.745 195.663 209.596C156.76 194.97 123.257 170.828 132.258 123.671C131.058 122.238 129.859 120.5 128.558 119.374ZM371.875 121.318C370.975 122.444 369.976 123.569 369.075 124.695C372.777 163.667 352.173 191.081 316.772 205.096C312.871 206.63 308.671 207.654 304.872 209.494C303.87 211.951 303.37 214.199 302.971 216.86L305.87 216.041C344.075 206.323 385.376 172.466 374.276 127.866C373.875 125.922 373.176 122.956 371.875 121.318Z" fill="#F28F90"/>
</g>
<mask id="mask2_2141_1959" style="mask-type:luminance" maskUnits="userSpaceOnUse" x="197" y="0" width="107" height="69">
<path d="M197.851 0H303.316V68.6963H197.851V0Z" fill="white"/>
</mask>
<g mask="url(#mask2_2141_1959)">
<path d="M282.17 29.9716C273.469 19.7437 265.269 39.4847 279.07 39.282H280.071C275.571 52.3741 259.668 52.8863 254.367 39.8954C250.469 30.4836 259.167 39.7914 262.169 38.6659C269.07 36.1109 268.069 25.4724 257.068 27.4139C259.569 25.1656 264.069 22.0959 264.27 18.4129C264.669 11.6627 258.669 10.1266 253.968 12.7882L253.668 12.6842C256.169 7.97962 254.969 3.06969 250.469 0C245.968 3.06969 244.767 7.87827 247.267 12.6842L246.967 12.7882C242.266 10.1266 236.167 11.6627 236.668 18.4129C236.968 22.0959 241.367 25.1656 243.867 27.4139C232.866 25.4724 231.868 36.1109 238.767 38.6659C241.768 39.7914 250.469 30.4836 246.568 39.8954C241.267 52.8863 225.365 52.3741 220.867 39.282H221.866C235.667 39.5887 227.566 19.7437 218.765 29.9716C212.265 21.5839 208.265 19.0262 197.963 16.9807C208.163 33.4493 215.764 51.5555 225.967 68.0239H274.971C285.171 51.657 292.871 33.4493 302.972 16.9807C292.67 18.9249 288.67 21.5839 282.17 29.9716Z" fill="#9CD5BE"/>
</g>
<path d="M283.471 139.526C286.47 139.323 289.27 139.118 292.271 139.526C289.171 132.058 285.37 125.001 282.269 117.635C285.972 118.248 289.771 118.659 293.471 119.374C289.372 112.216 283.87 105.769 280.17 98.4058C283.069 98.5073 285.87 98.4058 288.769 98.4058C269.37 79.1744 277.571 74.5713 245.867 74.6728C240.068 74.6728 217.365 77.2304 216.265 83.1643C216.265 83.1643 204.464 84.3912 195.663 90.4265C188.563 95.3365 184.762 105.564 190.465 113.237C192.464 115.896 193.163 109.247 194.464 108.02C199.465 103.212 220.165 109.759 225.167 112.317C218.265 116.613 210.064 112.624 203.465 109.554C208.065 115.589 213.465 121.523 221.365 122.342C224.567 122.649 228.066 121.012 231.067 121.419C233.966 132.57 219.164 150.575 214.565 159.883C217.164 159.37 219.767 158.757 222.264 158.043C222.366 162.747 222.465 166.838 225.167 170.929C229.367 171.033 232.267 169.804 235.268 166.838C236.267 165.918 239.768 159.883 240.668 162.643C246.868 176.556 255.668 178.296 260.468 163.155L261.17 160.904C270.869 172.873 278.269 176.658 282.269 157.938C287.672 160.395 290.97 161.723 296.972 160.904C294.472 156.098 286.871 142.902 283.471 139.526Z" fill="#F28F90"/>
</g>
<defs>
<clipPath id="clip0_2141_1959">
<rect width="500" height="462" fill="white"/>
</clipPath>
</defs>
</svg>
